{
  "accessors": [
    {
      "bufferView": 2,
      "componentType": 5126,
      "count": 7771,
      "max": [
        0.041850414127111435,
        0.04114191606640816,
        0.08574596047401428
      ],
      "min": [
        -0.05177128314971924,
        -0.13907381892204285,
        -0.17894650995731354
      ],
      "type": "VEC3"
    },
    {
      "bufferView": 2,
      "byteOffset": 93252,
      "componentType": 5126,
      "count": 7771,
      "max": [
        0.9996342062950134,
        0.9993559122085571,
        0.9999938011169434
      ],
      "min": [
        -0.9998006820678711,
        -0.9998528361320496,
        -0.9998990893363953
      ],
      "type": "VEC3"
    },
    {
      "bufferView": 1,
      "componentType": 5126,
      "count": 7771,
      "max": [
        0.9996070861816406,
        0.9060710668563843
      ],
      "min": [
        0.00039296108298003674,
        0.000392953836126253
      ],
      "type": "VEC2"
    },
    {
      "bufferView": 0,
      "componentType": 5125,
      "count": 40005,
      "type": "SCALAR"
    }
  ],
  "asset": {
    "extras": {
      "author": "droyer (https://sketchfab.com/droyer)",
      "license": "CC-BY-4.0 (http://creativecommons.org/licenses/by/4.0/)",
      "source": "https://sketchfab.com/3d-models/oculus-quest-2-controller-404ddc53c29f443288804eb5409c6e95",
      "title": "Oculus Quest 2 Controller"
    },
    "generator": "Sketchfab-15.36.0",
    "version": "2.0"
  },
  "bufferViews": [
    {
      "buffer": 0,
      "byteLength": 160020,
      "name": "floatBufferViews",
      "target": 34963
    },
    {
      "buffer": 0,
      "byteLength": 62168,
      "byteOffset": 160020,
      "byteStride": 8,
      "name": "floatBufferViews",
      "target": 34962
    },
    {
      "buffer": 0,
      "byteLength": 186504,
      "byteOffset": 222188,
      "byteStride": 12,
      "name": "floatBufferViews",
      "target": 34962
    }
  ],
  "buffers": [
    {
      "byteLength": 408692,
      "uri": "scene.bin"
    }
  ],
  "materials": [
    {
      "doubleSided": true,
      "name": "Scene_-_Root",
      "pbrMetallicRoughness": {
        "metallicFactor": 0.0,
        "roughnessFactor": 0.6
      }
    }
  ],
  "meshes": [
    {
      "name": "OculusFullController__0",
      "primitives": [
        {
          "attributes": {
            "NORMAL": 1,
            "POSITION": 0,
            "TEXCOORD_0": 2
          },
          "indices": 3,
          "material": 0,
          "mode": 4
        }
      ]
    }
  ],
  "nodes": [
    {
      "children": [
        1
      ],
      "matrix": [
        1.0,
        0.0,
        0.0,
        0.0,
        0.0,
        2.220446049250313e-16,
        -1.0,
        0.0,
        0.0,
        1.0,
        2.220446049250313e-16,
        0.0,
        0.0,
        0.0,
        0.0,
        1.0
      ],
      "name": "Sketchfab_model"
    },
    {
      "children": [
        2
      ],
      "matrix": [
        0.009999999776482582,
        0.0,
        0.0,
        0.0,
        0.0,
        0.0,
        0.009999999776482582,
        0.0,
        0.0,
        -0.009999999776482582,
        0.0,
        0.0,
        0.0,
        0.0,
        0.0,
        1.0
      ],
      "name": "aa2b8b77b6a44adda4604098a5b62276.fbx"
    },
    {
      "children": [
        3
      ],
      "name": "RootNode"
    },
    {
      "children": [
        4
      ],
      "matrix": [
        100.0,
        0.0,
        0.0,
        0.0,
        0.0,
        -1.629206793918314e-05,
        -99.99999999999868,
        0.0,
        0.0,
        99.99999999999868,
        -1.629206793918314e-05,
        0.0,
        0.0,
        0.0,
        0.0,
        1.0
      ],
      "name": "OculusFullController"
    },
    {
      "mesh": 0,
      "name": "OculusFullController__0"
    }
  ],
  "scene": 0,
  "scenes": [
    {
      "name": "Sketchfab_Scene",
      "nodes": [
        0
      ]
    }
  ]
}
